<?xml version="1.0" encoding="UTF-8"?>
<!DOCTYPE svg PUBLIC "-//W3C//DTD SVG 1.1//EN" "http://www.w3.org/Graphics/SVG/1.1/DTD/svg11.dtd">
<!-- Creator: CorelDRAW 2019 -->
<svg xmlns="http://www.w3.org/2000/svg" xml:space="preserve" width="170mm" height="42.557mm" version="1.1" shape-rendering="geometricPrecision" text-rendering="geometricPrecision" image-rendering="optimizeQuality" fill-rule="evenodd" clip-rule="evenodd"
viewBox="0 0 170 42.557"
 xmlns:xlink="http://www.w3.org/1999/xlink"
 xmlns:xodm="http://www.corel.com/coreldraw/odm/2003">
 <g id="Layer_x0020_1">
  <metadata id="CorelCorpID_0Corel-Layer"/>
  <g id="_541578312">
   <path fill="#2A2F32" d="M20.8829 29.2378c1.5873,0.3148 6.419,0.3978 7.3749,-0.4826 1.084,-0.9984 0.6224,-5.6097 0.6224,-7.4595 -0.0001,-1.8536 0.4615,-6.4319 -0.6241,-7.4589 -0.8461,-0.8004 -5.8323,-0.7858 -7.361,-0.489l-0.0122 15.89zm2.3664 -1.7585c1.6483,0.0053 2.8405,0.1027 3.1216,-0.2142 0.3745,-0.9451 0.377,-11.0413 -0.0283,-11.9129 -0.3532,-0.3883 -2.5681,-0.253 -3.0714,-0.242l-0.0219 12.3691z"/>
   <path fill="#2A2F32" d="M109.9235 29.3053c9.1752,0.5104 7.9829,0.3418 7.983,-8.0096 0,-8.3111 1.1933,-8.5357 -7.971,-8.0124l-0.012 16.022zm2.3376 -1.867c0.5233,0.04 2.7844,0.2398 3.1653,-0.2755 0.3257,-0.7233 0.2822,-11.2051 -0.044,-11.722 -0.5039,-0.6129 -2.3432,-0.3707 -3.1001,-0.2959l-0.0212 12.2934z"/>
   <path fill="#2A2F32" d="M36.766 29.2415l2.2745 0.1036 0.0428 -6.4532 1.1893 -0.0545 2.4709 6.4747 2.41 0.0225 -2.443 -6.5682c1.6094,-0.46 1.7067,-1.176 1.7214,-2.9451 0.0103,-1.2325 0.127,-3.6743 -0.0554,-4.7788 -0.2526,-1.5303 -1.1335,-1.7721 -2.8222,-1.7954 -1.2462,-0.0172 -3.674,-0.1226 -4.7898,0.1053l0.0015 15.8891zm2.3198 -8.3022l2.9076 0.0159c0.1659,-0.9019 0.2797,-4.718 -0.0269,-5.5631 -0.6853,-0.3805 -1.9956,-0.3194 -2.8727,-0.1593l-0.008 5.7065z"/>
   <path fill="#2A2F32" d="M141.3226 29.2332l2.2756 0.1206 0.0427 -6.238c5.4979,-0.4563 5.2924,1.3127 5.3278,-6.0536 0.0107,-2.2205 0.1601,-3.534 -2.0327,-3.7793 -1.0263,-0.1148 -4.6664,-0.1285 -5.5941,0.0725l-0.0193 15.8778zm2.3021 -8.0032l2.8144 0.0342 0.2667 -2.2934c-0.0468,-1.2019 0.1662,-2.6961 -0.2714,-3.7224l-2.7988 -0.0972 -0.0109 6.0788z"/>
   <path fill="#2A2F32" d="M133.3861 13.2701l-2.299 -0.0097c-0.0685,2.3645 0.3106,12.721 -0.179,13.962 -0.6208,0.3261 -2.0314,0.3005 -2.6237,0.043 -0.5759,-1.0914 -0.1871,-11.6819 -0.2397,-13.9376l-2.296 -0.0855c-0.1143,3.2772 -0.0227,6.6858 -0.0228,9.9584 -0.0003,4.5895 -1.0064,6.1379 3.8706,6.1388 4.3769,0.0007 3.8071,-0.8612 3.8068,-6.1388 -0.0001,-3.2738 0.0879,-6.6725 -0.0172,-9.9306z"/>
   <path fill="#2A2F32" d="M70.9643 22.1502c0.1872,1.1569 0.2462,4.129 -0.0578,5.2146 -0.7907,0.0991 -1.6662,0.1893 -2.2807,-0.1424l-0.2018 -2.4773 -2.2383 0.0003c-0.1862,2.3422 -0.3088,4.2558 1.8504,4.5436 1.7745,0.2364 4.6896,0.3758 5.2513,-1.2172 0.2351,-0.6667 0.2582,-5.428 0.0872,-6.2537 -0.5661,-2.7343 -3.4274,-0.8281 -4.6503,-1.8772 -0.2862,-0.2712 -0.8668,-4.4388 0.3846,-4.7371 2.334,-0.5562 1.8861,0.8283 1.9892,2.5736l2.2884 0.0727c0.1066,-2.212 0.2963,-4.1254 -1.6365,-4.5129 -1.7562,-0.3521 -4.7077,-0.3842 -5.4044,1.0052 -0.3687,0.7351 -0.3717,5.001 -0.1756,6.043 0.4248,2.2577 2.6215,1.467 4.7943,1.7648z"/>
   <path fill="#2A2F32" d="M80.6982 18.5441c0.0113,4.4708 1.2897,3.0991 4.8687,3.5985 0.2064,0.8117 0.4312,4.292 -0.0527,4.9655 -0.3295,0.3472 0.3765,0.1752 -0.7997,0.3441 -2.0858,0.2996 -1.5346,-0.9693 -1.6614,-2.7154l-2.2558 0.0134c-0.3366,3.2498 -0.1347,4.575 3.0727,4.5938 4.6357,0.0272 4.1935,-0.4379 4.1934,-6.3549 0,-5.3917 -4.8138,-0.5871 -5.0036,-4.0032 -0.088,-1.5828 -0.2511,-3.5704 0.6567,-3.7798 2.5062,-0.578 1.8771,1.0388 1.9639,2.5879l2.3039 0.0486c0.3163,-4.0726 -0.0427,-4.61 -3.8982,-4.5978 -4.0383,0.0127 -3.3952,1.5979 -3.3879,5.2993z"/>
   <polygon fill="#2A2F32" points="52.2984,29.3213 59.2788,29.3302 59.283,27.4806 54.6562,27.426 54.6498,21.9784 58.2937,21.9694 58.2971,20.0735 54.6513,20.059 54.6397,15.1612 59.0741,15.1443 59.0952,13.2881 52.3102,13.2505 "/>
   <polygon fill="#2A2F32" points="95.7094,29.3228 102.6843,29.3295 102.6841,27.4761 98.0541,27.4254 98.0533,21.9901 101.6875,21.9635 101.6935,20.0728 98.0541,20.0614 98.046,15.1714 102.4743,15.141 102.5095,13.2654 95.7254,13.2514 "/>
  </g>
 </g>
</svg>
